<svg width="200" height="200" viewBox="0 0 200 200" fill="none" xmlns="http://www.w3.org/2000/svg">
  <!-- Body (Turnip) -->
  <ellipse cx="100" cy="120" rx="60" ry="70" fill="#F9E0E3" />
  <ellipse cx="100" cy="140" rx="50" ry="50" fill="#A6536E" opacity="0.2" />
  
  <!-- Leaves -->
  <path d="M110 50C110 50 130 30 150 40C170 50 160 70 150 75C140 80 125 70 110 50Z" fill="#7FB069" />
  <path d="M90 50C90 50 70 30 50 40C30 50 40 70 50 75C60 80 75 70 90 50Z" fill="#7FB069" />
  <path d="M100 50C100 50 110 20 100 10C90 0 80 10 80 20C80 30 90 40 100 50Z" fill="#7FB069" />
  
  <!-- Stem -->
  <rect x="95" y="45" width="10" height="30" fill="#7FB069" />
  
  <!-- Face -->
  <!-- Eyes -->
  <ellipse cx="80" cy="110" rx="8" ry="10" fill="#2B4162" />
  <ellipse cx="120" cy="110" rx="8" ry="10" fill="#2B4162" />
  
  <!-- Blush -->
  <circle cx="75" cy="125" r="8" fill="#A6536E" opacity="0.5" />
  <circle cx="125" cy="125" r="8" fill="#A6536E" opacity="0.5" />
  
  <!-- Mouth -->
  <path d="M90 135C90 135 100 145 110 135" stroke="#2B4162" stroke-width="3" stroke-linecap="round" />
</svg>
